<svg width="99" height="23" viewBox="0 0 99 23" fill="none" xmlns="http://www.w3.org/2000/svg">
<path d="M-0.000453055 1.39197H3.74355V18.168H-0.000453055V1.39197ZM11.0974 10.968V18.168H7.49736V5.25597H11.0974V6.69597C12.1854 5.59197 13.4094 5.03997 14.7694 5.03997C16.1294 5.03997 17.2654 5.51997 18.1774 6.47997C19.1054 7.43997 19.5694 8.71997 19.5694 10.32V18.168H15.9694V10.872C15.9694 8.88797 15.2414 7.89597 13.7854 7.89597C13.0654 7.89597 12.4334 8.15997 11.8894 8.68797C11.3614 9.19997 11.0974 9.95997 11.0974 10.968ZM28.0855 18.36C26.5655 18.36 25.2055 17.712 24.0055 16.416C22.8055 15.12 22.2055 13.512 22.2055 11.592C22.2055 9.67197 22.7895 8.10397 23.9575 6.88797C25.1255 5.65597 26.4935 5.03997 28.0615 5.03997C29.6295 5.03997 30.9095 5.59197 31.9015 6.69597V0.359968H35.5015V18.168H31.9015V16.464C30.8935 17.728 29.6215 18.36 28.0855 18.36ZM25.8295 11.736C25.8295 12.776 26.1415 13.632 26.7655 14.304C27.3895 14.96 28.1175 15.288 28.9495 15.288C29.7815 15.288 30.4855 14.96 31.0615 14.304C31.6535 13.632 31.9495 12.776 31.9495 11.736C31.9495 10.68 31.6535 9.80797 31.0615 9.11997C30.4855 8.41597 29.7735 8.06397 28.9255 8.06397C28.0775 8.06397 27.3495 8.41597 26.7415 9.11997C26.1335 9.82397 25.8295 10.696 25.8295 11.736ZM42.6099 18.168H39.0099V5.25597H42.6099V18.168ZM39.2979 3.62397C38.8979 3.20797 38.6979 2.70397 38.6979 2.11197C38.6979 1.51997 38.8979 1.02397 39.2979 0.623969C39.7139 0.207968 40.2179 -3.19481e-05 40.8099 -3.19481e-05C41.4019 -3.19481e-05 41.8979 0.207968 42.2979 0.623969C42.7139 1.02397 42.9219 1.51997 42.9219 2.11197C42.9219 2.70397 42.7139 3.20797 42.2979 3.62397C41.8979 4.02397 41.4019 4.22397 40.8099 4.22397C40.2179 4.22397 39.7139 4.02397 39.2979 3.62397ZM52.3097 15.168C53.5097 15.168 54.5897 14.568 55.5497 13.368L57.6857 15.768C56.0217 17.496 54.2217 18.36 52.2857 18.36C50.3497 18.36 48.7097 17.752 47.3657 16.536C46.0377 15.304 45.3737 13.704 45.3737 11.736C45.3737 9.75197 46.0457 8.14397 47.3897 6.91197C48.7497 5.66397 50.3577 5.03997 52.2137 5.03997C53.1417 5.03997 54.0777 5.23197 55.0217 5.61597C55.9817 5.99997 56.8217 6.56797 57.5417 7.31997L55.6697 9.76797C55.2537 9.27197 54.7417 8.88797 54.1337 8.61597C53.5417 8.34397 52.9497 8.20797 52.3577 8.20797C51.4137 8.20797 50.5977 8.51997 49.9097 9.14397C49.2377 9.75197 48.9017 10.608 48.9017 11.712C48.9017 12.8 49.2377 13.648 49.9097 14.256C50.5977 14.864 51.3977 15.168 52.3097 15.168ZM62.8555 11.712C62.8555 12.768 63.1515 13.632 63.7435 14.304C64.3515 14.96 65.1195 15.288 66.0475 15.288C66.9915 15.288 67.7595 14.96 68.3515 14.304C68.9595 13.632 69.2635 12.768 69.2635 11.712C69.2635 10.656 68.9595 9.79197 68.3515 9.11997C67.7595 8.44797 66.9915 8.11197 66.0475 8.11197C65.1195 8.11197 64.3515 8.44797 63.7435 9.11997C63.1515 9.79197 62.8555 10.656 62.8555 11.712ZM72.8875 11.712C72.8875 13.584 72.2395 15.16 70.9435 16.44C69.6475 17.72 68.0155 18.36 66.0475 18.36C64.0955 18.36 62.4715 17.72 61.1755 16.44C59.8795 15.16 59.2315 13.584 59.2315 11.712C59.2315 9.83997 59.8795 8.26397 61.1755 6.98397C62.4715 5.68797 64.0955 5.03997 66.0475 5.03997C68.0155 5.03997 69.6475 5.68797 70.9435 6.98397C72.2395 8.26397 72.8875 9.83997 72.8875 11.712ZM82.4534 8.42397C81.3814 8.42397 80.5814 8.80797 80.0534 9.57597C79.5254 10.328 79.2614 11.328 79.2614 12.576V18.168H75.6614V5.25597H79.2614V6.95997C79.7254 6.43197 80.3014 5.98397 80.9894 5.61597C81.6934 5.24797 82.4054 5.05597 83.1254 5.03997L83.1494 8.42397H82.4534ZM93.1406 5.03997C94.6446 5.03997 95.9806 5.67197 97.1486 6.93597C98.3326 8.18397 98.9246 9.75997 98.9246 11.664C98.9246 13.568 98.3326 15.16 97.1486 16.44C95.9806 17.72 94.6046 18.36 93.0206 18.36C91.4526 18.36 90.1886 17.728 89.2286 16.464V22.824H85.6286V5.25597H89.2286V6.69597C90.3326 5.59197 91.6366 5.03997 93.1406 5.03997ZM89.1806 11.736C89.1806 12.776 89.4686 13.632 90.0446 14.304C90.6366 14.96 91.3486 15.288 92.1806 15.288C93.0126 15.288 93.7406 14.96 94.3646 14.304C94.9886 13.632 95.3006 12.776 95.3006 11.736C95.3006 10.696 94.9966 9.82397 94.3886 9.11997C93.7806 8.41597 93.0526 8.06397 92.2046 8.06397C91.3566 8.06397 90.6366 8.41597 90.0446 9.11997C89.4686 9.80797 89.1806 10.68 89.1806 11.736Z" fill="#252B42"/>
</svg>
